<svg xmlns="http://www.w3.org/2000/svg" viewBox="0 0 965.41 446"><path d="M152.42,304.85C68.38,304.85,0,236.47,0,152.42S68.38,0,152.42,0,304.85,68.38,304.85,152.42,236.47,304.85,152.42,304.85Zm0-278A125.62,125.62,0,1,0,278,152.42,125.75,125.75,0,0,0,152.42,26.81Z" fill="#0885c2"/><path d="M482.49,304.85c-84,0-152.42-68.38-152.42-152.43S398.45,0,482.49,0,634.92,68.38,634.92,152.42,566.54,304.85,482.49,304.85Zm0-278A125.62,125.62,0,1,0,608.11,152.42,125.76,125.76,0,0,0,482.49,26.81Z"/><path d="M813,304.85c-84,0-152.42-68.38-152.42-152.43S728.94,0,813,0,965.41,68.38,965.41,152.42,897,304.85,813,304.85Zm0-278A125.62,125.62,0,1,0,938.61,152.42,125.76,125.76,0,0,0,813,26.81Z" fill="#ed334e"/><path d="M317.46,446C233.41,446,165,377.62,165,293.58s68.38-152.43,152.43-152.43,152.42,68.38,152.42,152.43S401.51,446,317.46,446Zm0-278A125.62,125.62,0,1,0,443.08,293.58,125.76,125.76,0,0,0,317.46,168Z" fill="#fbb132"/><path d="M647.53,446c-84,0-152.43-68.38-152.43-152.42s68.38-152.43,152.43-152.43S800,209.53,800,293.58,731.58,446,647.53,446Zm0-278A125.62,125.62,0,1,0,773.15,293.58,125.76,125.76,0,0,0,647.53,168Z" fill="#1c8b3c"/><path d="M274.45,244.05,253,228a126.18,126.18,0,0,0,0-150.66l21.45-16.08a152.23,152.23,0,0,1,0,182.82Z" fill="#0885c2"/><path d="M482.49,304.85A153.36,153.36,0,0,1,391,274.51l15.9-21.57A126.79,126.79,0,0,0,482.49,278Zm122-60.8L583.07,228a126.18,126.18,0,0,0,0-150.66l21.45-16.08a152.23,152.23,0,0,1,0,182.82Z"/><path d="M813,304.85a153.39,153.39,0,0,1-91.54-30.34l15.91-21.57A126.79,126.79,0,0,0,813,278Z" fill="#ed334e"/></svg>